<mxfile host="Electron" modified="2023-06-20T13:18:38.628Z" agent="Mozilla/5.0 (Macintosh; Intel Mac OS X 10_15_7) AppleWebKit/537.36 (KHTML, like Gecko) draw.io/21.4.0 Chrome/112.0.5615.204 Electron/24.5.1 Safari/537.36" etag="L5RcPhqpbgZqzR0xNUhq" version="21.4.0" type="device">
  <diagram name="Repository Template - GitHub Generic" id="HNA4ruy8jlA4YYfhhtkU">
    <mxGraphModel dx="1597" dy="921" grid="1" gridSize="5" guides="1" tooltips="1" connect="1" arrows="1" fold="1" page="1" pageScale="1" pageWidth="1169" pageHeight="827" background="none" math="0" shadow="0">
      <root>
        <mxCell id="0" />
        <mxCell id="1" parent="0" />
        <mxCell id="ivtmZmyJrMCVqw1YNCTe-29" value="" style="group" parent="1" vertex="1" connectable="0">
          <mxGeometry x="475" y="310" width="260" height="109" as="geometry" />
        </mxCell>
        <mxCell id="LwBWUpAdodE-Z5iKHwp5-1" value="NHSE SEQF&lt;br&gt;Standards" style="shape=document;whiteSpace=wrap;html=1;boundedLbl=1;fillColor=#FFCCE6;strokeColor=#9673a6;fontColor=#1A1A1A;fontStyle=0" parent="ivtmZmyJrMCVqw1YNCTe-29" vertex="1">
          <mxGeometry x="140" y="-40" width="120" height="80" as="geometry" />
        </mxCell>
        <mxCell id="ivtmZmyJrMCVqw1YNCTe-11" value="" style="strokeWidth=2;html=1;shape=mxgraph.flowchart.database;whiteSpace=wrap;fillColor=#0078d4;strokeColor=#5da0ef;" parent="ivtmZmyJrMCVqw1YNCTe-29" vertex="1">
          <mxGeometry x="52" width="115" height="79" as="geometry" />
        </mxCell>
        <mxCell id="ivtmZmyJrMCVqw1YNCTe-12" value="Repository Template" style="text;html=1;strokeColor=none;fillColor=none;align=center;verticalAlign=middle;whiteSpace=wrap;rounded=0;" parent="ivtmZmyJrMCVqw1YNCTe-29" vertex="1">
          <mxGeometry y="79" width="220" height="30" as="geometry" />
        </mxCell>
        <mxCell id="ivtmZmyJrMCVqw1YNCTe-32" value="" style="rounded=0;whiteSpace=wrap;html=1;fillColor=#f5f5f5;fontColor=#333333;strokeColor=#999999;" parent="1" vertex="1">
          <mxGeometry x="920" y="460" width="139.5" height="240" as="geometry" />
        </mxCell>
        <mxCell id="ivtmZmyJrMCVqw1YNCTe-31" value="" style="rounded=0;whiteSpace=wrap;html=1;fillColor=#f5f5f5;fontColor=#333333;strokeColor=#999999;" parent="1" vertex="1">
          <mxGeometry x="920" y="60" width="139.5" height="360" as="geometry" />
        </mxCell>
        <mxCell id="ivtmZmyJrMCVqw1YNCTe-33" value="" style="rounded=0;whiteSpace=wrap;html=1;fillColor=#f5f5f5;fontColor=#333333;strokeColor=#999999;" parent="1" vertex="1">
          <mxGeometry x="300" y="60" width="580" height="140" as="geometry" />
        </mxCell>
        <mxCell id="ivtmZmyJrMCVqw1YNCTe-34" value="" style="rounded=0;whiteSpace=wrap;html=1;fillColor=#f5f5f5;fontColor=#333333;strokeColor=#999999;" parent="1" vertex="1">
          <mxGeometry x="600" y="560" width="280" height="140" as="geometry" />
        </mxCell>
        <mxCell id="ivtmZmyJrMCVqw1YNCTe-30" value="" style="rounded=0;whiteSpace=wrap;html=1;fillColor=#f5f5f5;fontColor=#333333;strokeColor=#999999;" parent="1" vertex="1">
          <mxGeometry x="120.5" y="60" width="139.5" height="640" as="geometry" />
        </mxCell>
        <mxCell id="ivtmZmyJrMCVqw1YNCTe-1" value="Readme" style="image;aspect=fixed;html=1;points=[];align=center;fontSize=12;image=img/lib/azure2/general/File.svg;labelBackgroundColor=none;" parent="1" vertex="1">
          <mxGeometry x="160" y="89" width="56.00000000000001" height="69" as="geometry" />
        </mxCell>
        <mxCell id="ivtmZmyJrMCVqw1YNCTe-3" value="Contributing" style="image;aspect=fixed;html=1;points=[];align=center;fontSize=12;image=img/lib/azure2/general/File.svg;labelBackgroundColor=none;" parent="1" vertex="1">
          <mxGeometry x="160" y="189" width="56.00000000000001" height="69" as="geometry" />
        </mxCell>
        <mxCell id="ivtmZmyJrMCVqw1YNCTe-4" value="Decision Records" style="image;aspect=fixed;html=1;points=[];align=center;fontSize=12;image=img/lib/azure2/general/File.svg;labelBackgroundColor=none;" parent="1" vertex="1">
          <mxGeometry x="160" y="289" width="56.00000000000001" height="69" as="geometry" />
        </mxCell>
        <mxCell id="ivtmZmyJrMCVqw1YNCTe-5" value="Diagrams" style="image;aspect=fixed;html=1;points=[];align=center;fontSize=12;image=img/lib/azure2/general/File.svg;labelBackgroundColor=none;" parent="1" vertex="1">
          <mxGeometry x="160" y="389" width="56.00000000000001" height="69" as="geometry" />
        </mxCell>
        <mxCell id="ivtmZmyJrMCVqw1YNCTe-6" value="Changelog" style="image;aspect=fixed;html=1;points=[];align=center;fontSize=12;image=img/lib/azure2/general/File.svg;labelBackgroundColor=none;" parent="1" vertex="1">
          <mxGeometry x="160" y="489" width="56.00000000000001" height="69" as="geometry" />
        </mxCell>
        <mxCell id="ivtmZmyJrMCVqw1YNCTe-7" value="Licence" style="image;aspect=fixed;html=1;points=[];align=center;fontSize=12;image=img/lib/azure2/general/File.svg;labelBackgroundColor=none;" parent="1" vertex="1">
          <mxGeometry x="160" y="589" width="56.00000000000001" height="69" as="geometry" />
        </mxCell>
        <mxCell id="ivtmZmyJrMCVqw1YNCTe-13" value="Pull Request" style="image;aspect=fixed;html=1;points=[];align=center;fontSize=12;image=img/lib/azure2/general/File.svg;labelBackgroundColor=none;" parent="1" vertex="1">
          <mxGeometry x="357" y="89" width="56.00000000000001" height="69" as="geometry" />
        </mxCell>
        <mxCell id="ivtmZmyJrMCVqw1YNCTe-14" value="Feature" style="image;aspect=fixed;html=1;points=[];align=center;fontSize=12;image=img/lib/azure2/general/File.svg;labelBackgroundColor=none;" parent="1" vertex="1">
          <mxGeometry x="457" y="89" width="56.00000000000001" height="69" as="geometry" />
        </mxCell>
        <mxCell id="ivtmZmyJrMCVqw1YNCTe-15" value="Issue" style="image;aspect=fixed;html=1;points=[];align=center;fontSize=12;image=img/lib/azure2/general/File.svg;labelBackgroundColor=none;" parent="1" vertex="1">
          <mxGeometry x="557" y="89" width="56.00000000000001" height="69" as="geometry" />
        </mxCell>
        <mxCell id="ivtmZmyJrMCVqw1YNCTe-16" value="Security" style="image;aspect=fixed;html=1;points=[];align=center;fontSize=12;image=img/lib/azure2/general/File.svg;labelBackgroundColor=none;" parent="1" vertex="1">
          <mxGeometry x="657" y="89" width="56.00000000000001" height="69" as="geometry" />
        </mxCell>
        <mxCell id="ivtmZmyJrMCVqw1YNCTe-17" value="Codeowners" style="image;aspect=fixed;html=1;points=[];align=center;fontSize=12;image=img/lib/azure2/general/File.svg;labelBackgroundColor=none;" parent="1" vertex="1">
          <mxGeometry x="757" y="89" width="56.00000000000001" height="69" as="geometry" />
        </mxCell>
        <mxCell id="ivtmZmyJrMCVqw1YNCTe-19" value="GitHub Actions" style="image;aspect=fixed;html=1;points=[];align=center;fontSize=12;image=img/lib/azure2/general/File.svg;labelBackgroundColor=none;" parent="1" vertex="1">
          <mxGeometry x="960" y="89" width="56.00000000000001" height="69" as="geometry" />
        </mxCell>
        <mxCell id="ivtmZmyJrMCVqw1YNCTe-20" value="Git Hooks" style="image;aspect=fixed;html=1;points=[];align=center;fontSize=12;image=img/lib/azure2/general/File.svg;labelBackgroundColor=none;" parent="1" vertex="1">
          <mxGeometry x="960" y="189" width="56.00000000000001" height="69" as="geometry" />
        </mxCell>
        <mxCell id="ivtmZmyJrMCVqw1YNCTe-21" value="Bootstrap Scripts" style="image;aspect=fixed;html=1;points=[];align=center;fontSize=12;image=img/lib/azure2/general/File.svg;labelBackgroundColor=none;" parent="1" vertex="1">
          <mxGeometry x="960" y="289" width="56.00000000000001" height="69" as="geometry" />
        </mxCell>
        <mxCell id="ivtmZmyJrMCVqw1YNCTe-22" value="Editor Config" style="image;aspect=fixed;html=1;points=[];align=center;fontSize=12;image=img/lib/azure2/general/File.svg;labelBackgroundColor=none;" parent="1" vertex="1">
          <mxGeometry x="657" y="589" width="56.00000000000001" height="69" as="geometry" />
        </mxCell>
        <mxCell id="ivtmZmyJrMCVqw1YNCTe-23" value="Git Config" style="image;aspect=fixed;html=1;points=[];align=center;fontSize=12;image=img/lib/azure2/general/File.svg;labelBackgroundColor=none;" parent="1" vertex="1">
          <mxGeometry x="757" y="589" width="56.00000000000001" height="69" as="geometry" />
        </mxCell>
        <mxCell id="ivtmZmyJrMCVqw1YNCTe-24" value="Dependency Scan" style="image;aspect=fixed;html=1;points=[];align=center;fontSize=12;image=img/lib/azure2/general/File.svg;labelBackgroundColor=none;" parent="1" vertex="1">
          <mxGeometry x="960" y="489" width="56.00000000000001" height="69" as="geometry" />
        </mxCell>
        <mxCell id="ivtmZmyJrMCVqw1YNCTe-25" value="Software Bill of Materials" style="image;aspect=fixed;html=1;points=[];align=center;fontSize=12;image=img/lib/azure2/general/File.svg;labelBackgroundColor=none;" parent="1" vertex="1">
          <mxGeometry x="960" y="589" width="56.00000000000001" height="69" as="geometry" />
        </mxCell>
        <mxCell id="ivtmZmyJrMCVqw1YNCTe-35" value="Documentation" style="text;html=1;strokeColor=none;fillColor=none;align=left;verticalAlign=middle;whiteSpace=wrap;rounded=0;fontStyle=1;fontColor=#666666;" parent="1" vertex="1">
          <mxGeometry x="120.5" y="40" width="139.5" height="20" as="geometry" />
        </mxCell>
        <mxCell id="ivtmZmyJrMCVqw1YNCTe-36" value="Configuration" style="text;html=1;strokeColor=none;fillColor=none;align=left;verticalAlign=middle;whiteSpace=wrap;rounded=0;fontStyle=1;fontColor=#666666;" parent="1" vertex="1">
          <mxGeometry x="620" y="540" width="139.5" height="20" as="geometry" />
        </mxCell>
        <mxCell id="ivtmZmyJrMCVqw1YNCTe-37" value="Structure" style="text;html=1;strokeColor=none;fillColor=none;align=left;verticalAlign=middle;whiteSpace=wrap;rounded=0;fontStyle=1;fontColor=#666666;" parent="1" vertex="1">
          <mxGeometry x="920" y="40" width="139.5" height="20" as="geometry" />
        </mxCell>
        <mxCell id="ivtmZmyJrMCVqw1YNCTe-38" value="Security" style="text;html=1;strokeColor=none;fillColor=none;align=left;verticalAlign=middle;whiteSpace=wrap;rounded=0;fontStyle=1;fontColor=#666666;" parent="1" vertex="1">
          <mxGeometry x="920" y="440" width="139.5" height="20" as="geometry" />
        </mxCell>
        <mxCell id="ivtmZmyJrMCVqw1YNCTe-39" value="Process" style="text;html=1;strokeColor=none;fillColor=none;align=left;verticalAlign=middle;whiteSpace=wrap;rounded=0;fontStyle=1;fontColor=#666666;" parent="1" vertex="1">
          <mxGeometry x="300" y="40" width="139.5" height="20" as="geometry" />
        </mxCell>
        <mxCell id="ivtmZmyJrMCVqw1YNCTe-40" value="&lt;h1&gt;&lt;font style=&quot;font-size: 16px;&quot;&gt;Repository Template - GitHub Generic&lt;/font&gt;&lt;/h1&gt;&lt;p&gt;&lt;font style=&quot;font-size: 10px;&quot;&gt;This diagram shows the content of a GitHub generic repository.&lt;/font&gt;&lt;/p&gt;&lt;p&gt;&lt;font style=&quot;font-size: 10px;&quot;&gt;Last updated: 20/06/2023&lt;/font&gt;&lt;/p&gt;" style="text;html=1;strokeColor=none;fillColor=none;spacing=5;spacingTop=-20;whiteSpace=wrap;overflow=hidden;rounded=0;" parent="1" vertex="1">
          <mxGeometry x="5" y="730" width="315" height="90" as="geometry" />
        </mxCell>
        <mxCell id="7iLgMP7X1AWxptOZBA4z-1" value="&lt;ul&gt;&lt;li&gt;Repository content&lt;/li&gt;&lt;/ul&gt;" style="text;html=1;strokeColor=none;fillColor=none;align=left;verticalAlign=middle;whiteSpace=wrap;rounded=0;" parent="1" vertex="1">
          <mxGeometry x="720" y="250" width="150" height="95" as="geometry" />
        </mxCell>
        <mxCell id="bRYS1uTuN6S3yzqcqrCZ-1" value="" style="dashed=0;outlineConnect=0;html=1;align=center;labelPosition=center;verticalLabelPosition=bottom;verticalAlign=top;shape=mxgraph.weblogos.github" parent="1" vertex="1">
          <mxGeometry x="475" y="255" width="75" height="75" as="geometry" />
        </mxCell>
        <mxCell id="HIha47KEA8F94itUp2OT-1" value="" style="rounded=0;whiteSpace=wrap;html=1;fillColor=#f5f5f5;fontColor=#333333;strokeColor=#999999;" parent="1" vertex="1">
          <mxGeometry x="300" y="560" width="260" height="140" as="geometry" />
        </mxCell>
        <mxCell id="HIha47KEA8F94itUp2OT-2" value="More..." style="text;html=1;strokeColor=none;fillColor=none;align=left;verticalAlign=middle;whiteSpace=wrap;rounded=0;fontStyle=1;fontColor=#666666;" parent="1" vertex="1">
          <mxGeometry x="300" y="540" width="139.5" height="20" as="geometry" />
        </mxCell>
        <mxCell id="FDSgRW9XI9Z2J49Lr0ry-1" value="..." style="sketch=0;aspect=fixed;pointerEvents=1;shadow=0;dashed=0;html=1;strokeColor=none;labelPosition=center;verticalLabelPosition=bottom;verticalAlign=top;align=center;fillColor=#666666;shape=mxgraph.mscae.enterprise.document" parent="1" vertex="1">
          <mxGeometry x="357" y="588.5" width="56" height="70" as="geometry" />
        </mxCell>
        <mxCell id="FDSgRW9XI9Z2J49Lr0ry-2" value="..." style="sketch=0;aspect=fixed;pointerEvents=1;shadow=0;dashed=0;html=1;strokeColor=none;labelPosition=center;verticalLabelPosition=bottom;verticalAlign=top;align=center;fillColor=#666666;shape=mxgraph.mscae.enterprise.document" parent="1" vertex="1">
          <mxGeometry x="457" y="588.5" width="56" height="70" as="geometry" />
        </mxCell>
      </root>
    </mxGraphModel>
  </diagram>
</mxfile>
